<?xml version="1.0" encoding="UTF-8" standalone="no"?>
<svg
   clip-rule="evenodd"
   fill-rule="evenodd"
   stroke-linejoin="round"
   stroke-miterlimit="2"
   viewBox="0 0 48.000001 48"
   version="1.1"
   id="svg7"
   sodipodi:docname="video-display.svg"
   inkscape:export-filename="/home/eraldo/custom-packages/stream/self-stream.svg"
   inkscape:export-xdpi="96"
   inkscape:export-ydpi="96"
   width="48"
   height="48"
   xmlns:inkscape="http://www.inkscape.org/namespaces/inkscape"
   xmlns:sodipodi="http://sodipodi.sourceforge.net/DTD/sodipodi-0.dtd"
   xmlns="http://www.w3.org/2000/svg"
   xmlns:svg="http://www.w3.org/2000/svg">
  <defs
     id="defs7" />
  <sodipodi:namedview
     id="namedview7"
     pagecolor="#505050"
     bordercolor="#ffffff"
     borderopacity="1"
     inkscape:showpageshadow="0"
     inkscape:pageopacity="0"
     inkscape:pagecheckerboard="1"
     inkscape:deskcolor="#505050">
    <inkscape:page
       x="0"
       y="0"
       width="48"
       height="48"
       id="page2"
       margin="0"
       bleed="0" />
  </sodipodi:namedview>
  <linearGradient
     id="a"
     x2="1"
     gradientTransform="matrix(0,-7.9746,7.9746,0,709.3365,46.903061)"
     gradientUnits="userSpaceOnUse">
    <stop
       stop-color="#6b6b6b"
       offset="0"
       id="stop1" />
    <stop
       stop-color="#474747"
       offset="1"
       id="stop2" />
  </linearGradient>
  <linearGradient
     id="b"
     x2="1"
     gradientTransform="matrix(0,-31.548,26.151,0,24,33.88)"
     gradientUnits="userSpaceOnUse">
    <stop
       stop-color="#ff6b67"
       offset="0"
       id="stop3"
       style="stop-color:#1a41d9;stop-opacity:1;" />
    <stop
       stop-color="#ffd22d"
       offset="1"
       id="stop4"
       style="stop-color:#822dff;stop-opacity:1;" />
  </linearGradient>
  <path
     d="m 18.3465,35.923211 h 11.307 v 5.925 h -11.307 z"
     fill="url(#a)"
     fill-rule="nonzero"
     id="path4"
     style="fill:url(#a);stroke-width:0.75" />
  <path
     d="m 35.77,41.195573 c 0,-0.650652 -0.528,-1.177748 -1.178,-1.177748 H 13.408 c -0.65,0 -1.178,0.527096 -1.178,1.177748 v 1.304705 c 0,0.649518 0.528,1.177748 1.178,1.177748 h 21.184 c 0.65,0 1.178,-0.52823 1.178,-1.177748 z"
     fill="#a4a4a4"
     id="path5"
     style="stroke-width:1.06468" />
  <g
     transform="translate(0,3.0550504)"
     id="g7">
    <path
       d="M 39.44,33.88 H 8.56 c -3.438,0 -6.228,-2.79 -6.228,-6.228 V 8.56 c 0,-3.438 2.79,-6.228 6.228,-6.228 h 30.88 c 3.438,0 6.228,2.79 6.228,6.228 v 19.092 c 0,3.438 -2.79,6.228 -6.228,6.228 z"
       fill="url(#b)"
       id="path6"
       style="fill:url(#b)" />
    <path
       d="M 39.44,33.88 H 8.56 c -3.438,0 -6.228,-2.79 -6.228,-6.228 V 8.56 c 0,-3.438 2.79,-6.228 6.228,-6.228 h 30.88 c 3.438,0 6.228,2.79 6.228,6.228 v 19.092 c 0,3.438 -2.79,6.228 -6.228,6.228 z m 0,-1 c 2.886,0 5.228,-2.342 5.228,-5.228 V 8.56 c 0,-2.886 -2.342,-5.228 -5.228,-5.228 H 8.56 c -2.886,0 -5.228,2.342 -5.228,5.228 v 19.092 c 0,2.886 2.342,5.228 5.228,5.228 z"
       fill="#3e3e3e"
       id="path7" />
    <text
       xml:space="preserve"
       style="font-style:normal;font-variant:normal;font-weight:bold;font-stretch:normal;font-size:25px;font-family:P052;-inkscape-font-specification:'P052, Bold';font-variant-ligatures:normal;font-variant-caps:normal;font-variant-numeric:normal;font-variant-east-asian:normal;writing-mode:lr-tb;direction:ltr;fill:#474747;fill-opacity:1"
       x="16.023752"
       y="26.625969"
       id="text7"><tspan
         sodipodi:role="line"
         id="tspan7"
         x="16.023752"
         y="26.625969"
         style="font-style:normal;font-variant:normal;font-weight:bold;font-stretch:normal;font-size:25px;font-family:P052;-inkscape-font-specification:'P052, Bold';font-variant-ligatures:normal;font-variant-caps:normal;font-variant-numeric:normal;font-variant-east-asian:normal;fill:#474747;fill-opacity:1">S</tspan></text>
    <text
       xml:space="preserve"
       style="font-style:normal;font-variant:normal;font-weight:bold;font-stretch:normal;font-size:25px;font-family:P052;-inkscape-font-specification:'P052, Bold';font-variant-ligatures:normal;font-variant-caps:normal;font-variant-numeric:normal;font-variant-east-asian:normal;writing-mode:lr-tb;direction:ltr;fill:#a4a4a4;fill-opacity:1"
       x="16.642456"
       y="27.400005"
       id="text7-1"><tspan
         sodipodi:role="line"
         id="tspan7-1"
         x="16.642456"
         y="27.400005"
         style="font-style:normal;font-variant:normal;font-weight:bold;font-stretch:normal;font-size:25px;font-family:P052;-inkscape-font-specification:'P052, Bold';font-variant-ligatures:normal;font-variant-caps:normal;font-variant-numeric:normal;font-variant-east-asian:normal;fill:#a4a4a4;fill-opacity:1">S</tspan></text>
  </g>
</svg>
